<svg width="800" height="600" xmlns="http://www.w3.org/2000/svg" version="1.1"> <polygon points="78,186 148,186 148,256 78,256 "  style="stroke:#000000;fill:#ffffff;stroke-width:2;stroke-linecap:butt;stroke-linejoin:miter;"  /><text y="215"  transform="rotate(0 113 ,221)"  font-family="Arial"  font-size="12"  fill=" #000000"  text-anchor="middle" ><tspan x="113" dy="12">Text</tspan></text><polygon points="356,82 426,82 426,152 356,152 "  style="stroke:#000000;fill:#ffffff;stroke-width:2;stroke-linecap:butt;stroke-linejoin:miter;"  /><text y="111"  transform="rotate(0 391 ,117)"  font-family="Arial"  font-size="12"  fill=" #000000"  text-anchor="middle" ><tspan x="391" dy="12">Text</tspan></text><g transform="rotate (0, 314, 344)"><svg xmlns="http://www.w3.org/2000/svg" xmlns:xlink="http://www.w3.org/1999/xlink"><image x="268" y="298" width="92" height="92" xlink:href="http://diagramo.test/editor/assets/images/no-image.png" /></svg></g><polyline points="148,221 178,221 178,117 326,117 356,117 " style="stroke:#000000;fill:none;stroke-width:1;stroke-linecap:butt;stroke-linejoin:miter;" /><polygon points="356,117 343.0096189432334,109.5 343.0096189432334,124.5 "  style="stroke:#000000;fill:#FFFFFF;stroke-width:1;stroke-linecap:butt;stroke-linejoin:miter;"  /><polygon points="200,112 200,112 200,122 200,122 "  style="stroke:none;fill:#FFFFFF;stroke-width:none;stroke-linecap:butt;stroke-linejoin:miter;"  /><text y="112"  transform="rotate(0 200 ,117)"  font-family="Arial"  font-size="10"  text-anchor="middle" ><tspan x="200" dy="10"></tspan></text></svg>